<svg xmlns="http://www.w3.org/2000/svg" viewBox="0 0 40 70" width="5%">
  <defs>
    <linearGradient id="cardGrad" x1="-380" y1="-200" x2="420" y2="70" gradientUnits="userSpaceOnUse">
      <stop offset="0%" stop-color="#3c2f2f" />
      <stop offset="100%" stop-color="#4b3832" />
    </linearGradient>
  </defs>
  <!-- Background Card Linkedin Part -->
  <path d="M 0 0 L 40 0 L 40 68 L 0 68 Z" fill="url(#cardGrad)" />
  <path d="M 0 68 L 40 68" fill="none" stroke="#be9b7b" stroke-width="2" />
  
  <!-- Linkedin Icon Button -->
  <g transform="translate(0, 10)">
    <circle cx="20" cy="20" r="19" fill="#854442" stroke="#be9b7b" stroke-width="1.5"/>
    <path d="M26.2 26.2h-2.9v-4.5c0-1.1 0-2.5-1.5-2.5-1.5 0-1.7 1.2-1.7 2.4v4.6h-2.9V17h2.8v1.3h.05c.4-.7 1.3-1.5 2.7-1.5 2.9 0 3.45 1.9 3.45 4.4v5zM14.3 15.7c-.9 0-1.7-.7-1.7-1.7s.7-1.7 1.7-1.7c.9 0 1.7.7 1.7 1.7s-.7 1.7-1.7 1.7zm1.5 10.5h-2.9V17h2.9v9.2z" fill="#fff4e6"/>
  </g>
</svg>
